<svg width="405" height="279" viewBox="0 0 405 279" fill="none" xmlns="http://www.w3.org/2000/svg">
  <path d="M4.1092 251.559L7.45 233.035C20.9132 203.228 33.7562 171.6 59.2523 149.725C71.1951 170.7 86.0687 138.882 93.7805 130.52C104.523 118.868 127.659 118.858 141.812 110.446C144.743 107.665 147.833 105.284 151.864 104.244C164.157 97.8825 178.561 99.6029 191.454 95.732C203.997 91.9611 236.074 77.3176 244.396 68.5955C249.868 62.8542 254.729 58.083 260.33 52.5317C271.563 41.3991 273.733 22.9747 293.148 19.6839C304.571 17.7534 313.663 20.044 321.245 28.8061C329.727 38.6184 335.498 50.4912 342.78 60.1435C349.771 69.4257 361.784 78.6079 367.656 88.0902C369.456 90.9909 374.887 117.027 375.188 121.398C375.338 123.619 375.798 126.509 373.647 127.99C369.866 118.037 357.323 114.406 348.671 120.198C343.62 123.579 336.908 133.121 330.277 133.261C330.177 133.301 330.067 133.331 329.947 133.351C328.356 133.711 326.756 134.061 325.166 134.421C325.196 134.441 325.226 134.461 325.256 134.481L317.064 138.512C323.915 147.544 318.584 156.396 321.365 166.779C324.756 179.432 333.208 194.656 342.84 203.428C337.298 213.42 327.676 228.434 326.696 240.036C326.086 247.318 333.388 267.553 332.927 276.745C334.028 277.285 335.118 277.785 336.228 278.245C335.978 267.293 331.207 256.7 330.227 246.438" stroke="#F4F3F4" stroke-miterlimit="10"/>
  <path d="M4.1092 251.559C3.209 252.059 1.9687 251.809 0.6584 251.209C2.0487 248.098 1.1685 242.947 1.9287 239.876C5.8296 224.143 26.8346 181.522 36.6869 168.619C50.1401 151.005 67.1742 142.083 76.6164 120.758C79.7972 113.596 82.3278 95.4119 91.0099 92.9814C93.3304 92.3312 103.283 95.1819 109.694 93.1414C118.486 90.3507 129.269 73.1466 134.13 64.8747C141.502 52.3417 143.502 34.3374 160.786 32.3269C176.77 30.4665 178.051 51.7915 199.076 50.0011C213.399 48.7808 228.583 38.1383 239.095 28.656C251.798 17.2033 260.47 -8.5328 282.375 3.7401C287.927 6.8509 292.838 14.0726 296.899 15.983C301.43 18.1135 310.022 14.4827 317.144 20.5441C329.537 31.0966 338.879 50.5012 348.781 63.1142C354.133 69.9259 361.924 75.8573 367.056 82.0187C369.096 84.4693 370.906 91.0109 372.687 92.4912C373.617 93.2614 378.118 92.7613 381.129 94.3917C394.582 101.703 403.604 118.557 403.684 133.501C401.034 138.452 378.888 158.797 373.907 154.096C370.926 138.802 381.409 136.412 366.315 123.599C354.633 113.676 347.231 127.9 339.119 133.381C333.658 137.072 328.056 136.322 323.015 140.123C324.335 151.535 321.585 159.227 325.696 170.57C330.127 182.793 337.559 193.825 346.471 203.208C339.089 216.601 328.706 230.344 330.247 246.458" stroke="#F4F3F4" stroke-miterlimit="10"/>
  <path d="M81.1975 143.263C78.0468 146.744 72.3354 153.096 67.5843 152.516C51.8105 150.575 83.4281 137.492 85.8586 134.161C86.5788 136.622 82.7179 141.583 81.1975 143.263" stroke="#F4F3F4" stroke-miterlimit="10"/>
  <path d="M139.681 107.455C139.531 109.455 105.603 120.738 102.062 121.558C100.482 121.928 100.522 123.059 99.0018 120.568C104.583 105.634 126.388 100.863 139.681 107.455" stroke="#F4F3F4" stroke-miterlimit="10"/>
  <path d="M261.41 46.3102C258.01 50.2212 234.864 72.7965 231.663 74.697C207.968 88.7603 190.624 90.7108 165.588 96.7022C159.106 98.2526 148.814 103.794 144.733 104.414C136.031 105.744 129.369 97.2324 112.715 103.934C94.8608 111.116 100.892 118.167 89.2795 127.71C84.2583 131.831 77.5867 134.161 72.3054 137.912L88.9694 99.0628C91.73 94.6717 93.7405 98.0125 96.9713 97.8625C119.067 96.8623 122.687 90.0507 133.79 72.0064C141.262 59.8635 147.243 35.6777 164.597 36.2779C174.09 36.6079 177.26 53.572 194.404 54.3622C211.258 55.1323 232.083 39.6987 243.736 28.606C250.698 21.9845 255.269 9.3514 265.411 4.6003C273.513 0.8094 294.218 12.1421 290.597 16.5732C273.263 19.2538 270.353 36.0178 261.4 46.3202" stroke="#F4F3F4" stroke-miterlimit="10"/>
  <path d="M373.767 99.0928L376.178 95.2219C389.741 102.684 398.323 115.507 400.664 130.7C399.863 136.082 382.919 148.315 377.838 151.365C373.387 146.194 378.928 139.342 379.218 132.311C379.609 122.738 375.458 108.785 373.777 99.1028" stroke="#F4F3F4" stroke-miterlimit="10"/>
</svg>
